<svg xmlns="http://www.w3.org/2000/svg" width="105.263" height="92.078" viewBox="0 0 105.263 92.078">
  <g id="Group_68" data-name="Group 68" transform="translate(0 0)">
    <path id="Path_273" data-name="Path 273" d="M1217.276,616.509a14.017,14.017,0,0,0-1.611.105l-4.805.553-1.128-4.7a24.982,24.982,0,0,0-48.578,0l-1.133,4.707-4.809-.562a13.608,13.608,0,0,0-1.59-.1,13.395,13.395,0,1,0,0,26.789h63.654a13.395,13.395,0,1,0,0-26.789Z" transform="translate(-1132.817 -585.92)" fill="#248dec"/>
    <path id="Path_274" data-name="Path 274" d="M1175.428,615.806l-3.79-.911a19.04,19.04,0,0,1,18.572-14.629v3.9A15.156,15.156,0,0,0,1175.428,615.806Z" transform="translate(-1137.579 -586.972)" fill="#fff"/>
    <path id="Path_275" data-name="Path 275" d="M1180.226,676.675l-16.4-16.4h10.554v-6.6a4.29,4.29,0,0,0-4.289-4.289H1152.3a20.8,20.8,0,1,1,0-41.6c.249,0,.5.005.761.017a32.394,32.394,0,0,1,62.122,0q.395-.017.771-.017a20.8,20.8,0,1,1,0,41.6h-17.794c-2.187,0-3.413-3.51,0-3.9h17.794a16.9,16.9,0,1,0,0-33.806,17.7,17.7,0,0,0-2.012.127l-1.716.2-.4-1.679a28.492,28.492,0,0,0-55.4,0l-.4,1.681-1.719-.2a17.383,17.383,0,0,0-2-.126,16.9,16.9,0,1,0,0,33.806h17.79a8.189,8.189,0,0,1,8.188,8.187v10.5h-5.041l6.991,6.99,6.989-6.99h-5.04V652.84h3.9v7.433h10.554Z" transform="translate(-1131.493 -584.597)" fill="#001b46"/>
    <rect id="Rectangle_436" data-name="Rectangle 436" width="3.899" height="3.899" transform="translate(50.683 60.886)" fill="#001b46"/>
  </g>
</svg>
