<svg id="Group_81" data-name="Group 81" xmlns="http://www.w3.org/2000/svg" width="107.998" height="107.888" viewBox="0 0 107.998 107.888">
  <g id="Group_73" data-name="Group 73" transform="translate(28.406 24.007)">
    <path id="Path_280" data-name="Path 280" d="M1191.341,2266.6l-25.594-14.775v-29.555l25.594-14.773,25.592,14.773,0,29.554Zm-21.595-17.085,21.595,12.467,21.594-12.469,0-24.934-21.592-12.465-21.595,12.465Z" transform="translate(-1165.747 -2207.496)" fill="#001b46"/>
    <path id="Path_281" data-name="Path 281" d="M1191.487,2241.448l-24.593-14.2,2-3.463,22.593,13.045,22.594-13.045,2,3.463Z" transform="translate(-1165.894 -2209.59)" fill="#001b46"/>
    <rect id="Rectangle_441" data-name="Rectangle 441" width="4" height="27.246" transform="translate(23.594 29.549)" fill="#001b46"/>
  </g>
  <g id="Group_74" data-name="Group 74" transform="translate(0 27.939)">
    <path id="Path_282" data-name="Path 282" d="M1164.877,2226.629l-6.347-3.665H1151.2v-4h8.4l7.276,4.2Z" transform="translate(-1135.471 -2212.902)" fill="#001b46"/>
    <rect id="Rectangle_442" data-name="Rectangle 442" width="15.729" height="15.729" transform="translate(0 0)" fill="#f4400d"/>
  </g>
  <g id="Group_75" data-name="Group 75" transform="translate(76.592 27.939)">
    <path id="Path_283" data-name="Path 283" d="M1223.039,2226.629l-2-3.464,7.276-4.2h8.4v4h-7.328Z" transform="translate(-1221.039 -2212.902)" fill="#001b46"/>
    <rect id="Rectangle_443" data-name="Rectangle 443" width="15.729" height="15.729" transform="translate(15.677 0)" fill="#f4400d"/>
  </g>
  <g id="Group_76" data-name="Group 76" transform="translate(76.592 63.445)">
    <path id="Path_284" data-name="Path 284" d="M1236.715,2262.711h-8.4l-7.276-4.2,2-3.464,6.348,3.665h7.328Z" transform="translate(-1221.039 -2253.045)" fill="#001b46"/>
    <rect id="Rectangle_444" data-name="Rectangle 444" width="15.729" height="15.729" transform="translate(15.677 0)" fill="#248dec"/>
  </g>
  <g id="Group_77" data-name="Group 77" transform="translate(0 63.445)">
    <path id="Path_285" data-name="Path 285" d="M1159.6,2262.711h-8.4v-4h7.329l6.347-3.665,2,3.464Z" transform="translate(-1135.471 -2253.045)" fill="#001b46"/>
    <rect id="Rectangle_445" data-name="Rectangle 445" width="15.729" height="15.729" transform="translate(0 0)" fill="#248dec"/>
  </g>
  <g id="Group_78" data-name="Group 78" transform="translate(46.253 0)">
    <rect id="Rectangle_446" data-name="Rectangle 446" width="4" height="11.03" transform="translate(5.747 15.287)" fill="#001b46"/>
    <rect id="Rectangle_447" data-name="Rectangle 447" width="15.676" height="15.676" transform="translate(0)" fill="#248dec"/>
  </g>
  <g id="Group_79" data-name="Group 79" transform="translate(46.253 80.801)">
    <rect id="Rectangle_448" data-name="Rectangle 448" width="4" height="11.028" transform="translate(5.747 0)" fill="#001b46"/>
    <rect id="Rectangle_449" data-name="Rectangle 449" width="15.676" height="15.676" transform="translate(0 11.411)" fill="#f4400d"/>
  </g>
  <g id="Group_80" data-name="Group 80" transform="translate(15.729 11.287)">
    <rect id="Rectangle_450" data-name="Rectangle 450" width="4" height="4" fill="#001b46"/>
    <rect id="Rectangle_451" data-name="Rectangle 451" width="4" height="4" transform="translate(72.539)" fill="#001b46"/>
    <rect id="Rectangle_452" data-name="Rectangle 452" width="4" height="4" transform="translate(0 80.543)" fill="#001b46"/>
    <rect id="Rectangle_453" data-name="Rectangle 453" width="4" height="4" transform="translate(72.539 80.543)" fill="#001b46"/>
  </g>
</svg>
