<svg xmlns="http://www.w3.org/2000/svg" width="298" height="116" viewBox="0 0 298 116">
  <g id="Component_23_1" data-name="Component 23 – 1" transform="translate(1)">
    <g id="Group_140" data-name="Group 140" transform="translate(100.664 2.901)">
      <g id="Group_135" data-name="Group 135" transform="translate(12.767 20.288)">
        <g id="Group_134" data-name="Group 134">
          <line id="Line_1" data-name="Line 1" x2="64.756" transform="translate(0 32.383)" fill="none" stroke="#fff" stroke-linecap="round" stroke-linejoin="round" stroke-width="3"/>
          <line id="Line_2" data-name="Line 2" y2="32.412" transform="translate(32.378 0.005)" fill="none" stroke="#fff" stroke-linecap="round" stroke-linejoin="round" stroke-width="3"/>
          <path id="Path_93" data-name="Path 93" d="M2502.355,363.6a32.383,32.383,0,1,1,64.766.049" transform="translate(-2502.355 -331.187)" fill="none" stroke="#fff" stroke-linecap="round" stroke-linejoin="round" stroke-width="3"/>
          <path id="Path_94" data-name="Path 94" d="M2538.218,331.187s-17.358,6.931-17.358,32.383" transform="translate(-2505.835 -331.187)" fill="none" stroke="#fff" stroke-linecap="round" stroke-linejoin="round" stroke-width="3"/>
          <path id="Path_95" data-name="Path 95" d="M2520.859,371.069" transform="translate(-2505.834 -338.686)" fill="none" stroke="#fff" stroke-linecap="round" stroke-linejoin="round" stroke-width="3"/>
          <path id="Path_96" data-name="Path 96" d="M2542.237,331.187s17.359,6.931,17.359,32.383" transform="translate(-2509.854 -331.187)" fill="none" stroke="#fff" stroke-linecap="round" stroke-linejoin="round" stroke-width="3"/>
          <path id="Path_97" data-name="Path 97" d="M2563.616,371.069" transform="translate(-2513.874 -338.686)" fill="none" stroke="#fff" stroke-linecap="round" stroke-linejoin="round" stroke-width="3"/>
          <path id="Path_98" data-name="Path 98" d="M2537.017,351.789c-17.881,0-22.513-9.38-22.513-9.38" transform="translate(-2504.639 -333.297)" fill="none" stroke="#fff" stroke-linecap="round" stroke-linejoin="round" stroke-width="3"/>
          <path id="Path_99" data-name="Path 99" d="M2564.757,342.409s-4.633,9.38-22.514,9.38" transform="translate(-2509.855 -333.297)" fill="none" stroke="#fff" stroke-linecap="round" stroke-linejoin="round" stroke-width="3"/>
          <path id="Path_100" data-name="Path 100" d="M2559.467,350.493" transform="translate(-2513.094 -334.817)" fill="#35b4cf" stroke="#fff" stroke-width="1"/>
          <line id="Line_3" data-name="Line 3" y1="32.412" transform="translate(32.387 32.383)" fill="none" stroke="#fff" stroke-linecap="round" stroke-linejoin="round" stroke-width="3"/>
          <path id="Path_101" data-name="Path 101" d="M2567.121,371.111a32.383,32.383,0,0,1-64.766,0" transform="translate(-2502.355 -338.694)" fill="none" stroke="#fff" stroke-linecap="round" stroke-linejoin="round" stroke-width="3"/>
          <path id="Path_102" data-name="Path 102" d="M2542.237,403.494s17.359-6.93,17.359-32.383" transform="translate(-2509.854 -338.694)" fill="none" stroke="#fff" stroke-linecap="round" stroke-linejoin="round" stroke-width="3"/>
          <path id="Path_103" data-name="Path 103" d="M2563.616,371.111" transform="translate(-2513.874 -338.694)" fill="none" stroke="#fff" stroke-linecap="round" stroke-linejoin="round" stroke-width="3"/>
          <path id="Path_104" data-name="Path 104" d="M2538.218,403.494s-17.358-6.93-17.358-32.383" transform="translate(-2505.835 -338.694)" fill="none" stroke="#fff" stroke-linecap="round" stroke-linejoin="round" stroke-width="3"/>
          <path id="Path_105" data-name="Path 105" d="M2520.859,371.111" transform="translate(-2505.834 -338.694)" fill="none" stroke="#fff" stroke-linecap="round" stroke-linejoin="round" stroke-width="3"/>
          <path id="Path_106" data-name="Path 106" d="M2564.757,397.6s-4.633-9.38-22.514-9.38" transform="translate(-2509.855 -341.911)" fill="none" stroke="#fff" stroke-linecap="round" stroke-linejoin="round" stroke-width="3"/>
          <path id="Path_107" data-name="Path 107" d="M2514.5,397.6s4.632-9.38,22.513-9.38" transform="translate(-2504.639 -341.911)" fill="none" stroke="#fff" stroke-linecap="round" stroke-linejoin="round" stroke-width="3"/>
          <path id="Path_108" data-name="Path 108" d="M2525.007,391.688" transform="translate(-2506.615 -342.563)" fill="#35b4cf" stroke="#fff" stroke-width="1"/>
        </g>
      </g>
      <g id="Group_139" data-name="Group 139">
        <g id="Group_136" data-name="Group 136">
          <path id="Path_109" data-name="Path 109" d="M2524.841,309.464c-3.123,7-10.471,7.292-18.872,12.693a42.571,42.571,0,0,0-15,17.644,45.921,45.921,0,0,0-1.1,36.435" transform="translate(-2486.631 -306.815)" fill="none" stroke="#fff" stroke-linecap="round" stroke-width="2"/>
          <path id="Path_110" data-name="Path 110" d="M2526.5,307.939l7.609-1.738,1.738,7.609" transform="translate(-2494.127 -306.201)" fill="none" stroke="#fff" stroke-linecap="round" stroke-width="2"/>
        </g>
        <g id="Group_137" data-name="Group 137" transform="translate(2.086 78.221)">
          <path id="Path_111" data-name="Path 111" d="M2493.115,408.612c7.625-.8,11.55,5.422,20.427,10a42.578,42.578,0,0,0,22.78,4.168,45.922,45.922,0,0,0,32.1-17.268" transform="translate(-2489.936 -403.095)" fill="none" stroke="#fff" stroke-linecap="round" stroke-width="2"/>
          <path id="Path_112" data-name="Path 112" d="M2494.509,413.566l-5.31-5.72,5.721-5.31" transform="translate(-2489.2 -402.536)" fill="none" stroke="#fff" stroke-linecap="round" stroke-width="2"/>
        </g>
        <g id="Group_138" data-name="Group 138" transform="translate(51.619 8.057)">
          <path id="Path_113" data-name="Path 113" d="M2590.547,379.793c-4.5-6.206-1.08-12.715-1.556-22.69a42.572,42.572,0,0,0-7.78-21.811,45.918,45.918,0,0,0-31.007-19.167" transform="translate(-2550.204 -316.124)" fill="none" stroke="#fff" stroke-linecap="round" stroke-width="2"/>
          <path id="Path_114" data-name="Path 114" d="M2602.2,388.869l-2.3,7.458-7.458-2.3" transform="translate(-2558.146 -329.803)" fill="none" stroke="#fff" stroke-linecap="round" stroke-width="2"/>
        </g>
      </g>
    </g>
    <text id="_1_Decentralized_system_on_the_market_available._Not_even_for_1_second_0.01_is_stuck_in_the_backoffice_or_smart_contract." data-name="#1 Decentralized system on 
the market available. Not 
even for 1 second $0.01 is 
stuck in the backoffice or 
smart contract." transform="translate(148 20)" fill="#fff" font-size="20" font-family="BCSklonar-Bold, BC Sklonar" font-weight="700" opacity="0"><tspan x="-148" y="0">#1 Decentralized system</tspan><tspan y="0" xml:space="preserve" font-family="BCSklonar-Light, BC Sklonar" font-weight="300"> on </tspan><tspan font-family="BCSklonar-Light, BC Sklonar" font-weight="300"><tspan x="-143" y="23">the market available. Not </tspan><tspan x="-148" y="46">even for 1 second $0.01 is </tspan><tspan x="-143" y="69">stuck in the backoffice or </tspan><tspan x="-82" y="92">smart contract.</tspan></tspan></text>
  </g>
</svg>
