<svg id="Component_24_1" data-name="Component 24 – 1" xmlns="http://www.w3.org/2000/svg" width="255" height="74" viewBox="0 0 255 74">
  <g id="Group_133" data-name="Group 133" transform="translate(65.655 6.99)">
    <path id="Path_78" data-name="Path 78" d="M1098.49,727.3c-14.306,8.385-24.978-5.428-24.978-5.428-5.057-6.035-8.676.2-8.676.2-2.66,5.644-6.5,5.13-8.757,4.161a2.2,2.2,0,0,1-1.323-2.717l1.707-5.116a8.352,8.352,0,0,1,5.045-5.024l6.455-2.479c2.308-.886,4.436-.685,7.283-.177l16.824,3.479Z" transform="translate(-1006.33 -694.449)" fill="none" stroke="#fff" stroke-width="2"/>
    <path id="Path_79" data-name="Path 79" d="M1103.4,737.926,1092.324,741l-6.941-8.444s8.1,2.93,14.467-1.881Z" transform="translate(-1007.689 -697.825)" fill="none" stroke="#fff" stroke-width="2"/>
    <path id="Path_80" data-name="Path 80" d="M1004.093,691.3v43.908l9.836,3.4,17.631-37.589Z" transform="translate(-1004.093 -691.305)" fill="none" stroke="#fff" stroke-width="2"/>
    <path id="Path_81" data-name="Path 81" d="M1030.837,706.6l12.56,4.618-11.135,22.724-12.291-4.175" transform="translate(-1004.795 -693.837)" fill="none" stroke="#fff" stroke-width="2"/>
    <path id="Path_82" data-name="Path 82" d="M1132.922,694.152V738.06l-9.836,3.4-17.631-37.589Z" transform="translate(-1008.578 -691.776)" fill="none" stroke="#fff" stroke-width="2"/>
    <path id="Path_83" data-name="Path 83" d="M1106.364,709.443l-12.56,4.618,11.135,22.724,12.292-4.174" transform="translate(-1008.062 -694.309)" fill="none" stroke="#fff" stroke-width="2"/>
    <path id="Path_84" data-name="Path 84" d="M1084.082,732.862l9.553,10.458a2.675,2.675,0,0,1,.55,2.839h0c-.965,2.4-4.495,3.049-6.49,1.2l-13.115-12.15" transform="translate(-1007.211 -698.187)" fill="none" stroke="#fff" stroke-linecap="round" stroke-width="2"/>
    <path id="Path_85" data-name="Path 85" d="M1068.512,742.521l11.037,10.08c2.975,2.716,8.251,1.725,9.568-1.852.021-.055.04-.111.06-.167" transform="translate(-1006.943 -699.787)" fill="none" stroke="#fff" stroke-linecap="round" stroke-width="2"/>
    <path id="Path_86" data-name="Path 86" d="M1062.978,748.2l9.128,8.849a6.117,6.117,0,0,0,3.927,1.732,6.412,6.412,0,0,0,5.737-3.111" transform="translate(-1006.698 -700.727)" fill="none" stroke="#fff" stroke-linecap="round" stroke-width="2"/>
    <path id="Path_87" data-name="Path 87" d="M1044.482,712.1s10.051-.728,18.248.911" transform="translate(-1005.88 -694.722)" fill="none" stroke="#fff" stroke-width="2"/>
    <path id="Path_88" data-name="Path 88" d="M1034.872,734.594a222.715,222.715,0,0,1,26.352,19.373l4.278,3.585c2.145,1.8,5.815.823,6.283-1.739l.017-.105" transform="translate(-1005.454 -698.474)" fill="none" stroke="#fff" stroke-width="2"/>
    <path id="Path_89" data-name="Path 89" d="M1042.367,740.279l-1.125,1.1a2.316,2.316,0,0,0,.323,3.639h0a3.555,3.555,0,0,0,4.444-.31l1.1-1.083" transform="translate(-1005.704 -699.416)" fill="none" stroke="#fff" stroke-width="2"/>
    <path id="Path_90" data-name="Path 90" d="M1053.092,748.67l-2.466,2.348a3.975,3.975,0,0,1-5,.252h0a2.87,2.87,0,0,1-.364-4.431l2.3-2.311" transform="translate(-1005.875 -700.119)" fill="none" stroke="#fff" stroke-width="2"/>
    <path id="Path_91" data-name="Path 91" d="M1053.378,749.492l-1.6,1.519a2.844,2.844,0,0,0,.2,4.385h0a3.946,3.946,0,0,0,5.029-.143l1.668-1.545" transform="translate(-1006.161 -700.941)" fill="none" stroke="#fff" stroke-width="2"/>
    <path id="Path_92" data-name="Path 92" d="M1063.842,758.679l-.877.784a3.731,3.731,0,0,1-4.742.072h0a2.688,2.688,0,0,1-.126-4.15l.632-.585" transform="translate(-1006.441 -701.821)" fill="none" stroke="#fff" stroke-width="2"/>
  </g>
  <text id="Supported_by_REAL_development_team_with_plans_for_2021_" data-name="Supported by REAL 
development team
with plans for 2021!" fill="#fff" font-size="20" font-family="BCSklonar-Light, BC Sklonar" font-weight="300" opacity="0"><tspan x="34" y="20">Supported by </tspan><tspan y="20" font-family="BCSklonar-Bold, BC Sklonar" font-weight="700">REAL </tspan><tspan font-family="BCSklonar-Bold, BC Sklonar" font-weight="700"><tspan x="39" y="45">development</tspan><tspan y="45" xml:space="preserve" font-family="BCSklonar-Light, BC Sklonar" font-weight="300"> team</tspan></tspan><tspan x="17" y="70">with plans for 2021!</tspan></text>
</svg>
