<svg id="Group_72" data-name="Group 72" xmlns="http://www.w3.org/2000/svg" width="103.173" height="121.224" viewBox="0 0 103.173 121.224">
  <path id="Path_276" data-name="Path 276" d="M2190.728,1013.492l-7.537,7.538V993.816a29.47,29.47,0,0,1,21-28.22v-4.741H2151.88v76.869h52.314v-15.689A29.469,29.469,0,0,1,2190.728,1013.492Z" transform="translate(-2141.18 -938.669)" fill="#248dec"/>
  <g id="Group_69" data-name="Group 69" transform="translate(0 0)">
    <rect id="Rectangle_437" data-name="Rectangle 437" width="4.67" height="4.49" transform="translate(34.522 11.138)" fill="#001b46"/>
    <rect id="Rectangle_438" data-name="Rectangle 438" width="18.124" height="4.49" transform="translate(27.794 105.595)" fill="#001b46"/>
    <path id="Path_277" data-name="Path 277" d="M2204.077,1059.383h-52.569a10.583,10.583,0,0,1-10.574-10.568V948.737a10.588,10.588,0,0,1,10.574-10.578h52.569a10.587,10.587,0,0,1,10.572,10.578v15.109h-4.489V948.737a6.092,6.092,0,0,0-6.083-6.088h-52.569a6.093,6.093,0,0,0-6.085,6.088v100.078a6.089,6.089,0,0,0,6.085,6.078h52.569a6.088,6.088,0,0,0,6.083-6.078v-26.05h4.489v26.05A10.582,10.582,0,0,1,2204.077,1059.383Z" transform="translate(-2140.934 -938.159)" fill="#001b46"/>
  </g>
  <g id="Group_71" data-name="Group 71" transform="translate(39.767 23.443)">
    <g id="Group_70" data-name="Group 70" transform="translate(21.519 13.783)">
      <path id="Path_278" data-name="Path 278" d="M2215.8,1008.4h-3.967a8.2,8.2,0,0,1-8.2-8.2h4.491a3.7,3.7,0,0,0,3.709,3.708h3.967a3.709,3.709,0,1,0,0-7.418h-3.967a8.2,8.2,0,1,1,0-16.4h3.967a8.2,8.2,0,0,1,8.2,8.2h-4.491a3.7,3.7,0,0,0-3.711-3.709h-3.967a3.709,3.709,0,1,0,0,7.418h3.967a8.2,8.2,0,1,1,0,16.4Z" transform="translate(-2203.629 -976.328)" fill="#001b46"/>
      <rect id="Rectangle_439" data-name="Rectangle 439" width="4.489" height="6.013" transform="translate(7.94)" fill="#001b46"/>
      <rect id="Rectangle_440" data-name="Rectangle 440" width="4.489" height="6.013" transform="translate(7.94 29.83)" fill="#001b46"/>
    </g>
    <path id="Path_279" data-name="Path 279" d="M2181.615,1026.478V993.845a31.7,31.7,0,1,1,31.705,31.7h0a31.787,31.787,0,0,1-21.949-8.829Zm9.869-16.218,1.583,1.761a27.213,27.213,0,1,0-6.963-18.176v21.793Z" transform="translate(-2181.615 -962.141)" fill="#001b46"/>
  </g>
</svg>
