<svg id="Component_26_1" data-name="Component 26 – 1" xmlns="http://www.w3.org/2000/svg" width="350" height="141.237" viewBox="0 0 350 141.237">
  <g id="Group_145" data-name="Group 145" transform="translate(126.955 35)">
    <path id="Path_120" data-name="Path 120" d="M2574.28,1675.047c6.177-4.605,7.917-11.158,7.931-17.047a31.474,31.474,0,0,0-6.378-18.773l-12.667-17.037H2537.92l-12.667,17.037a31.479,31.479,0,0,0-6.379,18.773c.016,6.513,2.142,13.837,10.045,18.442" transform="translate(-2486.102 -1604.125)" fill="none" stroke="#fff" stroke-width="2"/>
    <rect id="Rectangle_56" data-name="Rectangle 56" width="30.59" height="5.089" rx="2.372" transform="translate(49.145 12.976)" fill="none" stroke="#fff" stroke-width="2"/>
    <path id="Path_121" data-name="Path 121" d="M2561.824,1602.035l-2.458,2.458-1.08-1.08a7.217,7.217,0,0,0-10.207,0l-1.08,1.08-2.458-2.458a5.843,5.843,0,0,0-8.263,0l-3.045,3.044,8.482,8.221h22.936l8.481-8.221-3.045-3.044A5.843,5.843,0,0,0,2561.824,1602.035Z" transform="translate(-2488.598 -1600.324)" fill="none" stroke="#fff" stroke-width="2"/>
    <path id="Path_122" data-name="Path 122" d="M2538.469,1700.986h4.42a21.082,21.082,0,0,0,11.833-3.636l3.231-2.193a1.191,1.191,0,0,0,.36-1.626,5.553,5.553,0,0,0-1.85-1.723,5.468,5.468,0,0,0-5.159-.038,14.048,14.048,0,0,1-11.316.456,36.529,36.529,0,0,0-5.55-2.878,23.341,23.341,0,0,0-22.339,2.733h0" transform="translate(-2484.924 -1615.506)" fill="none" stroke="#fff" stroke-width="2"/>
    <path id="Path_123" data-name="Path 123" d="M2512.1,1707.262s9.995-1.94,27.475-.945a25.423,25.423,0,0,0,13.3-2.926l26.583-14.024a1.046,1.046,0,0,0,.329-1.574c-.95-1.219-3.116-2.906-7.449-1.763a10.428,10.428,0,0,0-1.436.514l-13.375,5.7" transform="translate(-2484.924 -1615.157)" fill="none" stroke="#fff" stroke-width="2"/>
    <path id="Path_124" data-name="Path 124" d="M2499.873,1714.222h9.833v-25.369h-9.833" transform="translate(-2482.799 -1615.714)" fill="none" stroke="#fff" stroke-width="2"/>
    <path id="Path_148" data-name="Path 148" d="M0,0H17.073V39.515H0Z" transform="translate(0 65.722)" fill="none" stroke="#fff" stroke-width="2"/>
    <path id="Path_149" data-name="Path 149" d="M1255.137,1248.911v-.424a7.2,7.2,0,0,0-5.926-7.076v-1.9h-2.539v1.9a7.2,7.2,0,0,0-5.926,7.076c0,3.048,2.015,5.691,5.258,6.9.438.162.881.308,1.325.453a18.962,18.962,0,0,1,2.261.847,4.758,4.758,0,0,1,3.007,4.28,4.656,4.656,0,0,1-9.311.094l-.009-.416h-2.537l.005.429a7.221,7.221,0,0,0,5.926,6.968v1.9h2.539v-1.9a7.136,7.136,0,0,0,4.286-11.585,8.36,8.36,0,0,0-3.934-2.5c-.353-.125-.714-.242-1.077-.36a11.668,11.668,0,0,1-3.416-1.522,4.547,4.547,0,0,1-1.783-3.582,4.655,4.655,0,1,1,9.311,0v.424Z" transform="translate(-1183.167 -1204.219)" fill="#fff"/>
  </g>
  <text id="The_biggest_payout_plan_available_on_the_market._Get_3500_from_the_beginning_and_multiply_over_and_over_again." data-name="The biggest payout plan available on the market. Get 3500% from the beginning and multiply
over and over again." fill="#fff" font-size="20" font-family="BCSklonar-Bold, BC Sklonar" font-weight="700" opacity="0"><tspan x="48" y="20">The biggest payout plan </tspan><tspan x="20" y="45">available</tspan><tspan y="45" xml:space="preserve" font-family="BCSklonar-Light, BC Sklonar" font-weight="300"> on the market. </tspan><tspan y="45">Get </tspan><tspan x="20" y="70">3500%</tspan><tspan y="70" xml:space="preserve" font-family="BCSklonar-Light, BC Sklonar" font-weight="300"> from the beginning and </tspan><tspan x="130" y="95" font-family="BCSklonar-Light, BC Sklonar" font-weight="300">multiply</tspan><tspan font-family="BCSklonar-Light, BC Sklonar" font-weight="300"><tspan x="64" y="120">over and over again.</tspan></tspan></text>
</svg>
