<svg xmlns="http://www.w3.org/2000/svg" width="130.307" height="129.834" viewBox="0 0 130.307 129.834">
  <g id="Group_89" data-name="Group 89" transform="translate(3 3.92)">
    <path id="Path_291" data-name="Path 291" d="M3708.341,1561.225h-103.33a10.488,10.488,0,0,0-10.489,10.489v33.68h16.964a4.527,4.527,0,0,0,4.527-4.527v-.352a11.839,11.839,0,0,1,11.839-11.839H3685.5a11.838,11.838,0,0,1,11.839,11.839v.352a4.528,4.528,0,0,0,4.527,4.527h16.964v-33.68A10.488,10.488,0,0,0,3708.341,1561.225Z" transform="translate(-3594.522 -1482.479)" fill="none" stroke="#001b46" stroke-linecap="round" stroke-linejoin="round" stroke-width="6"/>
    <g id="Group_86" data-name="Group 86" transform="translate(37.595 0)">
      <line id="Line_7" data-name="Line 7" y2="22.691" transform="translate(38.268 56.055)" fill="none" stroke="#001b46" stroke-linecap="round" stroke-linejoin="round" stroke-width="6"/>
      <line id="Line_8" data-name="Line 8" y2="22.691" transform="translate(10.475 56.055)" fill="none" stroke="#001b46" stroke-linecap="round" stroke-linejoin="round" stroke-width="6"/>
      <circle id="Ellipse_1" data-name="Ellipse 1" cx="12.901" cy="12.901" r="12.901" transform="translate(7.702 9.874) rotate(-22.5)" fill="none" stroke="#001b46" stroke-linecap="round" stroke-linejoin="round" stroke-width="6"/>
      <path id="Path_292" data-name="Path 292" d="M3633.617,1559.589V1527a8.392,8.392,0,0,1,8.391-8.391h32.335a8.392,8.392,0,0,1,8.391,8.391v32.593" transform="translate(-3633.617 -1480.843)" fill="none" stroke="#001b46" stroke-linecap="round" stroke-linejoin="round" stroke-width="6"/>
      <line id="Line_9" data-name="Line 9" y2="14.952" transform="translate(24.559 37.762)" fill="none" stroke="#001b46" stroke-linecap="round" stroke-linejoin="round" stroke-width="6"/>
    </g>
    <g id="Group_87" data-name="Group 87" transform="translate(85.582 5.956)">
      <line id="Line_10" data-name="Line 10" y2="17.532" transform="translate(22.584 42.279)" fill="none" stroke="#001b46" stroke-linecap="round" stroke-linejoin="round" stroke-width="6"/>
      <circle id="Ellipse_2" data-name="Ellipse 2" cx="9.968" cy="9.968" r="9.968" transform="translate(0 19.403) rotate(-76.718)" fill="none" stroke="#001b46" stroke-linecap="round" stroke-linejoin="round" stroke-width="6"/>
      <path id="Path_293" data-name="Path 293" d="M3684.675,1514.8h23.372a6.483,6.483,0,0,1,6.483,6.483v25.184" transform="translate(-3683.564 -1486.653)" fill="none" stroke="#001b46" stroke-linecap="round" stroke-linejoin="round" stroke-width="6"/>
      <line id="Line_11" data-name="Line 11" y2="11.553" transform="translate(11.992 28.144)" fill="none" stroke="#001b46" stroke-linecap="round" stroke-linejoin="round" stroke-width="6"/>
    </g>
    <g id="Group_88" data-name="Group 88" transform="translate(7.781 4.924)">
      <line id="Line_12" data-name="Line 12" y2="17.532" transform="translate(8.093 43.311)" fill="none" stroke="#001b46" stroke-linecap="round" stroke-linejoin="round" stroke-width="6"/>
      <circle id="Ellipse_3" data-name="Ellipse 3" cx="9.968" cy="9.968" r="9.968" transform="translate(5.951 7.629) rotate(-22.5)" fill="none" stroke="#001b46" stroke-linecap="round" stroke-linejoin="round" stroke-width="6"/>
      <path id="Path_294" data-name="Path 294" d="M3602.614,1546.464V1521.28a6.483,6.483,0,0,1,6.483-6.483h24.3" transform="translate(-3602.614 -1485.62)" fill="none" stroke="#001b46" stroke-linecap="round" stroke-linejoin="round" stroke-width="6"/>
      <line id="Line_13" data-name="Line 13" y2="11.553" transform="translate(18.975 29.177)" fill="none" stroke="#001b46" stroke-linecap="round" stroke-linejoin="round" stroke-width="6"/>
    </g>
    <path id="Path_295" data-name="Path 295" d="M3713.29,1571.943a4.723,4.723,0,0,0-4.717-4.719H3605.241a4.725,4.725,0,0,0-4.719,4.719v3.68H3713.29Z" transform="translate(-3594.753 -1482.709)" fill="#f4400d"/>
  </g>
</svg>
