<svg xmlns="http://www.w3.org/2000/svg" width="252" height="106.24" viewBox="0 0 252 106.24">
  <g id="Component_25_1" data-name="Component 25 – 1" transform="translate(0 2.207)">
    <g id="Group_154" data-name="Group 154" transform="translate(81.663)">
      <path id="Path_139" data-name="Path 139" d="M1844.782,1700.322a4.828,4.828,0,0,0,.041-.593,4.619,4.619,0,0,0-5.827-4.5c0-.024,0-.047,0-.071a4.542,4.542,0,0,0-8-2.978,5.549,5.549,0,0,0-4.706-2.618c-.169,0-.336.009-.5.024a11.743,11.743,0,0,1-.772,3.476,113.628,113.628,0,0,1-8.158,16.664,8.933,8.933,0,0,0,13.535,3.767,4.617,4.617,0,0,0,7.395-.246,7.479,7.479,0,0,0,5.067,1.979,7.581,7.581,0,0,0,1.921-14.9Z" transform="translate(-1761.551 -1612.691)" fill="none" stroke="#fff" stroke-width="3"/>
      <path id="Path_140" data-name="Path 140" d="M1774.152,1693.06a11.763,11.763,0,0,1-.772-3.469c-.183-.018-.369-.031-.557-.031a5.552,5.552,0,0,0-4.706,2.618,4.541,4.541,0,0,0-8,2.978c0,.025,0,.047.005.071a4.619,4.619,0,0,0-5.827,4.5,4.733,4.733,0,0,0,.042.593,7.58,7.58,0,0,0,1.92,14.9,7.48,7.48,0,0,0,5.068-1.979,4.617,4.617,0,0,0,7.394.246,8.93,8.93,0,0,0,13.556-3.824A113.585,113.585,0,0,1,1774.152,1693.06Z" transform="translate(-1748.718 -1612.691)" fill="none" stroke="#fff" stroke-width="3"/>
      <path id="Path_141" data-name="Path 141" d="M1787.436,1671.575l-5.376,6.023a11.815,11.815,0,0,0-2.195,12.155,113.259,113.259,0,0,0,9.7,19.183l-1.74-15.623a7.657,7.657,0,0,1,4.941-8.077l.13-.046Z" transform="translate(-1754.432 -1609.383)" fill="none" stroke="#fff" stroke-width="3"/>
      <path id="Path_142" data-name="Path 142" d="M1802.919,1708.778c5.148-22.021,0-38.055,0-38.055S1797.771,1686.758,1802.919,1708.778Z" transform="translate(-1758.494 -1609.226)" fill="none" stroke="#fff" stroke-width="3"/>
      <path id="Path_143" data-name="Path 143" d="M1799.836,1689.321a8.832,8.832,0,0,1-3.723-1.063" transform="translate(-1757.643 -1612.451)" fill="none" stroke="#fff" stroke-width="3"/>
      <path id="Path_144" data-name="Path 144" d="M1816.321,1671.575l5.376,6.023a11.814,11.814,0,0,1,2.195,12.155,113.221,113.221,0,0,1-9.7,19.183l1.74-15.623a7.657,7.657,0,0,0-4.941-8.077l-.131-.046Z" transform="translate(-1760.419 -1609.383)" fill="none" stroke="#fff" stroke-width="3"/>
      <path id="Path_145" data-name="Path 145" d="M1806.269,1689.321a8.834,8.834,0,0,0,3.723-1.063" transform="translate(-1759.555 -1612.451)" fill="none" stroke="#fff" stroke-width="3"/>
      <path id="Path_146" data-name="Path 146" d="M1788.667,1657.557s-12-36.924,11.42-62.192a53.916,53.916,0,0,1,13.392,27.485s2.819,13.024,0,25.973c-1.337,6.144-1.971,8.734-1.971,8.734" transform="translate(-1755.662 -1595.365)" fill="none" stroke="#fff" stroke-width="3"/>
      <path id="Path_147" data-name="Path 147" d="M1811.113,1613.609a32.374,32.374,0,0,1-19.956,0" transform="translate(-1756.71 -1598.721)" fill="none" stroke="#fff" stroke-width="3"/>
      <ellipse id="Ellipse_4" data-name="Ellipse 4" cx="7.015" cy="7.053" rx="7.015" ry="7.053" transform="translate(37.41 29.531)" fill="none" stroke="#fff" stroke-width="3"/>
    </g>
    <text id="Immediate_payouts_-_100_automated_UNSTOPPABLE_" data-name="Immediate payouts
- 100% automated
&amp; UNSTOPPABLE!" transform="translate(0 17.79)" fill="#fff" font-size="20" font-family="BCSklonar-Bold, BC Sklonar" font-weight="700" opacity="0"><tspan x="32" y="20">Immediate payouts</tspan><tspan x="38" y="45">- 100% automated</tspan><tspan x="49" y="70">&amp; UNSTOPPABLE!</tspan></text>
  </g>
</svg>
