<svg xmlns="http://www.w3.org/2000/svg" width="22.656" height="19.567" viewBox="0 0 22.656 19.567">
  <g id="wechat" transform="translate(0 0)">
    <path id="Path_153" data-name="Path 153" d="M22.657,12.938c0-3.293-2.824-6-6.414-6.292a6.935,6.935,0,0,0-2.381-4.54A8.6,8.6,0,0,0,8.138,0,8.6,8.6,0,0,0,2.413,2.105,6.876,6.876,0,0,0,0,7.284a7.041,7.041,0,0,0,3.186,5.783l-.4,1.722a.664.664,0,0,0,.992.718l2.032-1.242a9.027,9.027,0,0,0,2.331.3c.219,0,.439-.008.658-.024a6.969,6.969,0,0,0,6.815,4.712,7.742,7.742,0,0,0,2.443-.39l1.743.658a.664.664,0,0,0,.868-.82l-.337-1.07a6.008,6.008,0,0,0,2.329-4.7Zm-14.519.3A7.672,7.672,0,0,1,5.9,12.911a.664.664,0,0,0-.539.069l-.924.565.148-.631a.663.663,0,0,0-.3-.72,5.791,5.791,0,0,1-2.955-4.91C1.328,4,4.383,1.327,8.138,1.327c3.51,0,6.408,2.336,6.771,5.324-3.557.317-6.344,3.016-6.344,6.287,0,.1,0,.193.008.289-.145.008-.29.013-.434.013Zm11.036,3.6a.664.664,0,0,0-.254.744l.068.216-.692-.261a.665.665,0,0,0-.464,0,6.4,6.4,0,0,1-2.222.392c-3.153,0-5.719-2.239-5.719-4.99s2.565-4.991,5.719-4.991,5.719,2.239,5.719,4.991a4.764,4.764,0,0,1-2.155,3.9Zm0,0" transform="translate(-0.001 0.001)" fill="#30aef0"/>
    <path id="Path_154" data-name="Path 154" d="M109.456,106.082a.675.675,0,1,0,.477.2A.681.681,0,0,0,109.456,106.082Zm0,0" transform="translate(-103.973 -101.394)" fill="#30aef0"/>
    <path id="Path_155" data-name="Path 155" d="M237.964,107.432a.676.676,0,1,0-.477-.2A.678.678,0,0,0,237.964,107.432Zm0,0" transform="translate(-226.8 -101.394)" fill="#30aef0"/>
    <path id="Path_156" data-name="Path 156" d="M282.573,239.242a.675.675,0,1,0,.478.2A.681.681,0,0,0,282.573,239.242Zm0,0" transform="translate(-269.438 -228.669)" fill="#30aef0"/>
    <path id="Path_157" data-name="Path 157" d="M386.534,239.242a.676.676,0,1,0,.477.2A.681.681,0,0,0,386.534,239.242Zm0,0" transform="translate(-368.803 -228.669)" fill="#30aef0"/>
  </g>
</svg>
