<svg xmlns="http://www.w3.org/2000/svg" width="19.567" height="19.567" viewBox="0 0 19.567 19.567">
  <path id="Icon_awesome-whatsapp" data-name="Icon awesome-whatsapp" d="M16.637,5.093a9.7,9.7,0,0,0-15.261,11.7L0,21.817l5.141-1.35a9.667,9.667,0,0,0,4.634,1.179h0a9.79,9.79,0,0,0,9.788-9.7,9.735,9.735,0,0,0-2.931-6.857ZM9.779,20.014a8.045,8.045,0,0,1-4.106-1.123l-.293-.175-3.049.8.812-2.974-.192-.306A8.075,8.075,0,1,1,17.93,11.951a8.149,8.149,0,0,1-8.15,8.063Zm4.42-6.036c-.24-.122-1.433-.708-1.655-.786s-.384-.122-.546.122-.625.786-.769.952-.284.183-.524.061a6.6,6.6,0,0,1-3.3-2.883c-.249-.428.249-.4.712-1.323A.449.449,0,0,0,8.1,9.7c-.061-.122-.546-1.315-.747-1.8s-.4-.406-.546-.415-.3-.009-.463-.009a.9.9,0,0,0-.646.3A2.723,2.723,0,0,0,4.848,9.8,4.746,4.746,0,0,0,5.835,12.3a10.827,10.827,0,0,0,4.141,3.66,4.741,4.741,0,0,0,2.909.607,2.482,2.482,0,0,0,1.634-1.153,2.026,2.026,0,0,0,.14-1.153C14.6,14.156,14.44,14.1,14.2,13.977Z" transform="translate(0 -2.25)" fill="#30aef0"/>
</svg>
